<svg xmlns="http://www.w3.org/2000/svg" viewBox="0 0 598.88 1333.33" shape-rendering="geometricPrecision" text-rendering="geometricPrecision" image-rendering="optimizeQuality" fill-rule="evenodd" clip-rule="evenodd"><g fill-rule="nonzero"><path d="M295.27 3.65l35.58 66.83c8 12.33 16.67 23.25 26.87 33.42 29.79 29.79 58.08 60.99 83.5 94.41 60.28 79.16 100.95 167.07 129.98 262.14 17.42 58.08 26.87 117.66 27.58 177.9 2.91 180.11-58.83 334.76-183.31 463.28-20.33 20.33-42.08 39.16-65.41 55.91-12.33 0-18.17-9.46-23.25-18.16-9.45-15.96-15.25-34.17-18.16-52.29-4.38-21.8-7.25-43.58-5.83-66.08v-10.16c-1-2.17-11.87-1002.07-7.54-1007.19v.01z" fill="#599636"/><path d="M295.27 1.43c-1.46-2.91-2.91-.71-4.38.71.71 14.58-4.38 27.58-12.33 40-8.75 12.33-20.33 21.8-31.96 31.96-64.57 55.91-115.4 123.45-156.11 198.98C36.33 374.74 8.41 483.68.5 598.38c-3.62 41.37 13.09 187.36 26.13 229.48 35.58 111.82 99.49 205.52 182.27 286.84 20.33 19.58 42.08 37.74 64.58 55.2 6.54 0 7.25-5.83 8.74-10.17 2.85-9.28 5.06-18.76 6.54-28.34l14.58-108.9L295.26 1.43z" fill="#6cac48"/><path d="M330.85 1201.77c1.46-16.67 9.46-30.5 18.17-44.29-8.75-3.62-15.25-10.83-20.33-18.87-4.38-7.25-8-15.96-10.83-23.96-10.17-30.5-12.33-62.5-15.25-93.66v-18.87c-3.62 2.91-4.38 27.58-4.38 31.25-2.03 32.85-6.54 65.8-13.08 98.05-2.17 13.08-3.62 26.12-11.67 37.74 0 1.46 0 2.91.71 5.09 13.08 38.5 16.67 77.7 18.87 117.66v14.58c0 17.41-.71 13.74 13.75 19.58 5.83 2.17 12.33 2.91 18.16 7.25 4.38 0 5.09-3.62 5.09-6.54l-2.17-23.96v-66.83c-.71-11.67 1.46-23.25 2.91-34.16l.05-.06z" fill="#c2bfbf"/></g></svg>