<?xml version="1.0" encoding="utf-8"?>
<!-- Generator: Adobe Illustrator 24.1.1, SVG Export Plug-In . SVG Version: 6.00 Build 0)  -->
<svg version="1.1" id="Layer_1" xmlns="http://www.w3.org/2000/svg" xmlns:xlink="http://www.w3.org/1999/xlink" x="0px" y="0px"
	 viewBox="0 0 512 512" style="enable-background:new 0 0 512 512;" xml:space="preserve">
<style type="text/css">
	.st0{fill:#336791;}
	.st1{fill:#FFFFFF;}
</style>
<g>
	<path d="M503,306.7c-3-9-10.8-15.3-20.9-16.8c-4.8-0.7-10.2-0.4-16.7,0.9c-11.3,2.3-19.6,3.2-25.7,3.4
		c23-38.9,41.7-83.2,52.5-124.9c17.4-67.5,8.1-98.2-2.8-112.1C460.6,20.4,418.6,0.6,367.9,0c-27-0.3-50.8,5-63.1,8.8
		c-11.5-2-23.9-3.2-36.9-3.4c-24.4-0.4-45.9,4.9-64.3,15.8C193.3,17.9,177,13,158.1,9.9C113.7,2.6,77.9,8.3,51.7,26.8
		C20,49.2,5.3,88.1,8,142.5c0.9,17.3,10.5,69.8,25.7,119.6c8.7,28.6,18,52.4,27.7,70.6c13.7,25.9,28.3,41.1,44.7,46.6
		c9.2,3.1,25.9,5.2,43.5-9.4c2.2,2.7,5.2,5.4,9.1,7.9c5,3.2,11.1,5.7,17.3,7.3c22.1,5.5,42.7,4.1,60.3-3.6c0.1,3.1,0.2,6.1,0.3,8.7
		c0.1,4.2,0.2,8.3,0.4,12.2c1,26,2.8,46.2,8.1,60.4c0.3,0.8,0.7,2,1.1,3.2c2.6,8,7,21.4,18.1,31.9c11.5,10.9,25.5,14.2,38.2,14.2
		c6.4,0,12.5-0.8,17.9-2c19.1-4.1,40.8-10.3,56.5-32.7c14.8-21.1,22-52.9,23.3-103c0.2-1.4,0.3-2.8,0.5-4.1c0.1-0.9,0.2-1.8,0.3-2.6
		l3.5,0.3l0.9,0.1c19.5,0.9,43.2-3.2,57.8-10C474.7,352.6,511.7,333.1,503,306.7"/>
	<path class="st0" d="M469.7,311.8c-57.8,11.9-61.8-7.7-61.8-7.7c61.1-90.6,86.6-205.6,64.6-233.8C412.4-6.4,308.4,29.9,306.6,30.9
		l-0.6,0.1c-11.4-2.4-24.2-3.8-38.6-4c-26.2-0.4-46,6.9-61.1,18.3c0,0-185.6-76.4-176.9,96.1c1.8,36.7,52.6,277.8,113.2,205
		c22.1-26.6,43.5-49.1,43.5-49.1c10.6,7.1,23.3,10.7,36.7,9.4l1-0.9c-0.3,3.3-0.2,6.5,0.4,10.4c-15.6,17.4-11,20.5-42.2,26.9
		c-31.6,6.5-13,18.1-0.9,21.1c14.7,3.7,48.6,8.9,71.6-23.3l-0.9,3.7c6.1,4.9,10.4,31.9,9.7,56.3c-0.7,24.4-1.2,41.2,3.6,54.3
		c4.8,13.1,9.6,42.6,50.6,33.8c34.3-7.3,52-26.4,54.5-58.1c1.8-22.6,5.7-19.2,6-39.4l3.2-9.6c3.7-30.6,0.6-40.5,21.7-35.9l5.1,0.5
		c15.5,0.7,35.9-2.5,47.8-8C479.8,326.5,495.1,306.6,469.7,311.8L469.7,311.8"/>
	<path class="st1" d="M217.3,157.8c-5.2-0.7-9.9-0.1-12.3,1.8c-1.3,1-1.8,2.2-1.9,3c-0.3,2.1,1.2,4.5,2.1,5.7
		c2.6,3.5,6.4,5.9,10.2,6.4c0.5,0.1,1.1,0.1,1.6,0.1c6.3,0,12-4.9,12.6-8.5C230.3,161.7,223.7,158.7,217.3,157.8"/>
	<path class="st1" d="M389.9,158L389.9,158c-0.5-3.6-6.8-4.6-12.8-3.7c-6,0.8-11.8,3.5-11.3,7.1c0.4,2.8,5.4,7.5,11.3,7.5
		c0.5,0,1,0,1.5-0.1c4-0.5,6.9-3.1,8.2-4.5C388.9,162,390.1,159.6,389.9,158"/>
	<path class="st1" d="M489,310.5c-2.2-6.7-9.3-8.8-21.1-6.4c-35,7.2-47.5,2.2-51.7-0.8c27.2-41.5,49.6-91.6,61.7-138.3
		c5.7-22.1,8.9-42.7,9.1-59.5c0.3-18.4-2.8-31.9-9.3-40.2C451.7,32,413.4,14.1,367.1,13.6c-31.8-0.4-58.7,7.8-63.9,10.1
		c-11-2.7-22.9-4.4-36-4.6c-23.9-0.4-44.6,5.3-61.7,17c-7.4-2.8-26.6-9.4-50.1-13.1c-40.6-6.5-72.8-1.6-95.9,14.7
		C32.1,57.1,19.5,91.9,21.9,141c0.8,16.5,10.2,67.4,25.1,116.1c19.6,64.1,40.8,100.4,63.2,107.9c2.6,0.9,5.6,1.5,9,1.5
		c8.2,0,18.2-3.7,28.6-16.2c17.3-20.8,33.4-38.2,39.4-44.6c8.8,4.7,18.5,7.4,28.3,7.6c0,0.3,0,0.5,0.1,0.8c-2,2.4-3.6,4.4-5,6.2
		c-6.8,8.7-8.3,10.5-30.3,15c-6.3,1.3-22.9,4.7-23.2,16.4c-0.3,12.8,19.7,18.1,22,18.7c7.9,2,15.6,3,22.8,3
		c17.7,0,33.3-5.8,45.7-17.1c-0.4,45.5,1.5,90.3,7,103.9c4.5,11.2,15.4,38.5,49.9,38.5c5.1,0,10.6-0.6,16.8-1.9
		c36-7.7,51.7-23.6,57.7-58.7c3.2-18.8,8.8-63.5,11.4-87.6c5.5,1.7,12.6,2.5,20.3,2.5c16,0,34.5-3.4,46.1-8.8
		C469.8,338.2,493.2,323.4,489,310.5z M403.2,148.1c-0.1,7.1-1.1,13.5-2.1,20.3c-1.1,7.2-2.3,14.7-2.6,23.8
		c-0.3,8.8,0.8,18,1.9,26.9c2.2,17.9,4.4,36.4-4.2,54.6c-1.3-2.4-2.6-4.9-3.8-7.8c-1.1-2.6-3.4-6.7-6.6-12.5
		c-12.4-22.3-41.6-74.6-26.7-95.9C363.6,151.1,374.9,144.6,403.2,148.1z M368.9,28c41.5,0.9,74.3,16.4,97.5,46.1
		c17.8,22.8-1.8,126.4-58.6,215.8c-0.6-0.7-1.1-1.4-1.7-2.2c-0.2-0.3-0.5-0.6-0.7-0.9c14.7-24.2,11.8-48.2,9.3-69.5
		c-1-8.7-2-17-1.8-24.7c0.3-8.2,1.3-15.2,2.4-22.1c1.3-8.4,2.6-17.1,2.2-27.3c0.3-1.1,0.4-2.3,0.2-3.8c-0.9-9.8-12.1-39.2-35-65.7
		c-12.5-14.5-30.7-30.8-55.6-41.8C337.9,29.7,352.5,27.6,368.9,28z M136.8,341.1c-11.5,13.8-19.4,11.1-22,10.3
		c-17-5.7-36.7-41.5-54-98.4c-15-49.2-23.8-98.7-24.5-112.6C34,96.4,44.7,65.8,67.9,49.4c37.7-26.8,99.8-10.7,124.7-2.6
		c-0.4,0.4-0.7,0.7-1.1,1c-40.9,41.3-39.9,111.9-39.8,116.2c0,1.7,0.1,4,0.3,7.3c0.7,11.9,2,34-1.5,59c-3.3,23.3,3.9,46,19.7,62.4
		c1.6,1.7,3.3,3.3,5.1,4.8C168.2,305,153,321.6,136.8,341.1z M180.5,282.8c-12.7-13.2-18.5-31.7-15.8-50.5
		c3.7-26.4,2.3-49.5,1.6-61.8c-0.1-1.7-0.2-3.2-0.2-4.4c6-5.3,33.7-20.1,53.4-15.6c9,2.1,14.5,8.2,16.8,18.8
		c11.8,54.6,1.6,77.4-6.7,95.7c-1.7,3.8-3.3,7.3-4.7,11l-1.1,2.8c-2.7,7.2-5.2,13.9-6.7,20.3C203.6,299,190.5,293.2,180.5,282.8z
		 M182.5,356.5c-3.9-1-7.5-2.7-9.6-4.1c1.7-0.8,4.8-1.9,10.2-3c25.9-5.3,29.9-9.1,38.7-20.2c2-2.5,4.3-5.4,7.4-8.9l0,0
		c4.7-5.2,6.8-4.4,10.7-2.7c3.2,1.3,6.2,5.3,7.5,9.6c0.6,2.1,1.3,6-0.9,9C228.3,361.6,201.7,361.3,182.5,356.5z M318.3,482.8
		c-31.7,6.8-43-9.4-50.4-27.9c-4.8-11.9-7.1-65.8-5.5-125.3c0-0.8-0.1-1.6-0.3-2.3c-0.2-1.4-0.5-2.8-0.9-4.2
		c-2.5-8.7-8.5-15.9-15.8-18.9c-2.9-1.2-8.2-3.4-14.5-1.8c1.4-5.6,3.7-11.9,6.2-18.7l1.1-2.9c1.2-3.2,2.7-6.6,4.3-10.1
		c8.6-19.2,20.4-45.4,7.6-104.6c-4.8-22.2-20.8-33-45.1-30.5c-14.6,1.5-27.9,7.4-34.5,10.8c-1.4,0.7-2.7,1.4-4,2.1
		c1.9-22.4,8.9-64.2,35.1-90.6C218.2,41.2,240.2,33,267,33.4c52.8,0.9,86.6,27.9,105.7,50.5c16.5,19.4,25.4,39,28.9,49.6
		c-26.7-2.7-44.9,2.6-54.2,15.7c-20.1,28.7,11,84.3,25.9,111.1c2.7,4.9,5.1,9.1,5.8,10.9c4.9,11.8,11.1,19.6,15.7,25.4
		c1.4,1.8,2.8,3.5,3.8,5c-8.1,2.3-22.7,7.7-21.3,34.7c-1.1,13.5-8.7,76.9-12.5,99.3C359.8,465.2,348.9,476.2,318.3,482.8z
		 M450.7,331.2c-8.3,3.8-22.1,6.7-35.3,7.3c-14.5,0.7-21.9-1.6-23.7-3c-0.8-16.8,5.4-18.6,12.1-20.4c1-0.3,2.1-0.6,3-0.9
		c0.6,0.5,1.3,1,2,1.5c11.7,7.7,32.5,8.5,62,2.5l0.3-0.1C467.1,321.8,460.3,326.8,450.7,331.2z"/>
</g>
</svg>
